<?xml version="1.0" encoding="UTF-8"?>
<svg width="1390px" height="764px" viewBox="0 0 1390 764" version="1.1" xmlns="http://www.w3.org/2000/svg" xmlns:xlink="http://www.w3.org/1999/xlink">
    <!-- Generator: Sketch 46.2 (44496) - http://www.bohemiancoding.com/sketch -->
    <title>Artboard Copy 12</title>
    <desc>Created with Sketch.</desc>
    <defs></defs>
    <g id="Page-1" stroke="none" stroke-width="1" fill="none" fill-rule="evenodd">
        <g id="Artboard-Copy-12" stroke="#3B479E" stroke-width="1.125" fill="#156A2E">
            <path d="M604.525674,191.875736 L601.092933,189.282686 L598.360752,189.492933 L598.9212,191.735571 L598.150585,193.97821 L600.182206,193.908127 L602.634164,194.819199 L604.525674,191.875736 L604.525674,191.875736 Z M613.632944,174.845701 L609.779868,175.196113 L607.257855,174.915783 L604.665785,178.279741 L603.334723,182.55477 L604.875953,184.657244 L604.946009,188.722026 L606.767463,186.759717 L607.748246,187.881037 L606.557295,189.773263 L607.257855,190.894582 L611.251042,191.665489 L611.321098,191.665489 L613.492832,194.328622 L612.932384,196.781508 L612.932384,196.781508 L607.958414,196.361013 L607.257855,199.164311 L609.079309,201.477032 L605.506457,202.808598 L606.417184,204.490577 L611.671378,205.191402 L611.671378,205.191402 L608.658973,206.102473 L603.544891,210.657833 L605.296289,211.498822 L607.748246,209.886926 L610.900763,210.377503 L613.212608,208.345112 L614.753838,209.186101 L620.56848,207.9947 L625.122115,208.064782 L628.13452,205.752061 L626.803457,203.579505 L628.484799,202.318021 L628.835079,199.584806 L624.771835,198.743816 L623.861108,197.13192 L621.829487,192.296231 L619.587697,191.595406 L616.715404,186.619552 L616.43518,186.199058 L613.072496,185.918728 L616.014845,182.204358 L616.925572,178.770318 L613.422776,178.770318 L610.130147,179.330978 L613.632944,174.845701 L613.632944,174.845701 Z" id="GB"></path>
        </g>
    </g>
</svg>