<?xml version="1.0" encoding="UTF-8"?>
<svg width="1390px" height="764px" viewBox="0 0 1390 764" version="1.1" xmlns="http://www.w3.org/2000/svg" xmlns:xlink="http://www.w3.org/1999/xlink">
    <!-- Generator: Sketch 46.2 (44496) - http://www.bohemiancoding.com/sketch -->
    <title>Artboard Copy 16</title>
    <desc>Created with Sketch.</desc>
    <defs></defs>
    <g id="Page-1" stroke="none" stroke-width="1" fill="none" fill-rule="evenodd">
        <g id="Artboard-Copy-16" stroke-width="1.125" stroke="#3B479E" fill="#156A2E">
            <polygon id="CZ" points="674.161261 206.593051 672.690086 207.013545 671.709304 206.522968 670.938688 207.363958 668.556787 208.204947 667.365836 209.256184 664.983935 210.167256 665.684494 211.498822 666.174886 213.320966 667.99634 214.372203 670.027961 216.194346 672.690086 217.595995 674.51154 215.843934 675.702491 215.493522 678.504728 216.825088 680.116014 216.614841 681.7273 217.45583 682.147636 216.474676 683.688866 216.544759 684.809761 216.124264 684.879817 215.703769 685.51032 215.493522 685.650432 214.512367 686.421047 214.30212 686.841383 213.531213 687.892222 213.531213 686.070768 211.358657 683.548754 211.14841 683.058363 209.746761 680.676462 209.326266 680.256126 210.377503 678.364616 209.536514 678.434672 208.345112 675.842603 207.924617 674.161261 206.593051"></polygon>
        </g>
    </g>
</svg>