<?xml version="1.0" encoding="UTF-8"?>
<svg width="1390px" height="764px" viewBox="0 0 1390 764" version="1.1" xmlns="http://www.w3.org/2000/svg" xmlns:xlink="http://www.w3.org/1999/xlink">
    <!-- Generator: Sketch 46.2 (44496) - http://www.bohemiancoding.com/sketch -->
    <title>Artboard Copy 10</title>
    <desc>Created with Sketch.</desc>
    <defs></defs>
    <g id="Page-1" stroke="none" stroke-width="1" fill="none" fill-rule="evenodd">
        <g id="Artboard-Copy-10" stroke-width="1.125" stroke="#3B479E" fill="#156A2E">
            <polygon id="CM" points="681.657245 384.882803 681.797356 381.869258 681.447077 378.925795 679.905846 376.052415 678.784952 376.332744 678.64484 377.734393 680.256126 379.556537 679.835791 380.327444 679.625623 381.799176 676.40305 385.303298 675.352211 388.106596 674.86182 390.419317 674.021149 391.400471 673.250534 394.554181 671.148856 396.376325 670.588409 398.618963 669.747738 400.441107 669.397458 402.263251 666.665277 403.805065 664.423488 401.982921 662.952313 402.053004 660.640468 404.646054 659.519573 404.716137 657.628063 408.991166 656.64728 412.144876 656.64728 413.40636 657.628063 414.037102 658.398678 415.999411 660.220132 416.770318 661.761362 419.713781 661.200915 423.217903 667.64606 423.358068 669.467514 423.077739 671.849415 423.638398 674.231317 423.077739 674.721708 423.287986 679.695679 423.498233 682.848195 424.689635 686.000712 425.740872 686.280935 423.287986 685.8606 422.026502 685.650432 419.994111 683.828978 418.522379 682.357804 416.279741 682.007524 414.667845 680.18607 412.355124 680.466294 411.023557 680.045958 409.131331 680.326182 405.627208 681.306965 404.856302 683.198475 400.300942 683.828978 399.109541 682.567972 396.025913 682.007524 394.203769 680.256126 393.432862 677.944281 390.839812 678.784952 388.737338 680.53635 389.157833 681.657245 388.877503 683.828978 388.947585 681.657245 384.882803"></polygon>
        </g>
    </g>
</svg>