<?xml version="1.0" encoding="UTF-8"?>
<svg width="1390px" height="764px" viewBox="0 0 1390 764" version="1.1" xmlns="http://www.w3.org/2000/svg" xmlns:xlink="http://www.w3.org/1999/xlink">
    <!-- Generator: Sketch 46.2 (44496) - http://www.bohemiancoding.com/sketch -->
    <title>Artboard Copy 8</title>
    <desc>Created with Sketch.</desc>
    <defs></defs>
    <g id="Page-1" stroke="none" stroke-width="1" fill="none" fill-rule="evenodd">
        <g id="Artboard-Copy-8" stroke-width="1.125" stroke="#3B479E" fill="#156A2E">
            <polygon id="BR" points="400.662938 424.969965 399.682156 425.11013 397.510422 424.759717 396.249415 425.951119 394.427961 426.722026 393.237011 426.862191 392.746619 427.773263 390.855109 427.563015 388.403152 425.460542 388.192984 423.428151 387.212201 421.11543 387.912761 417.330978 389.033655 415.789164 388.192984 413.68669 386.861922 413.055948 387.422369 411.09364 386.511642 410.042403 384.48002 410.25265 384.970412 411.514134 383.499237 413.196113 379.015658 414.878092 376.213421 415.578916 375.022471 416.630153 371.94001 415.508834 368.997661 414.948174 368.297102 415.368669 369.978444 416.489988 369.768277 419.503534 370.258668 422.306832 373.621352 422.657244 373.83152 423.638398 370.959227 424.899882 370.468836 426.792108 368.85755 427.492933 365.915201 428.54417 365.144586 429.875736 362.062125 430.226148 359.960447 427.843345 359.189832 428.404005 358.489273 425.740872 357.368378 424.339223 356.037316 425.881037 348.40122 425.810954 348.40122 428.54417 350.713066 429.034747 350.572954 430.716726 349.802339 430.296231 347.560549 430.997055 347.560549 434.220848 349.311947 435.902827 349.94245 438.425795 349.872395 440.388104 348.331164 452.58245 344.758312 452.372203 344.267921 453.073027 341.045348 453.914016 336.701881 456.927562 336.421657 459.030035 335.51093 460.571849 336.001322 462.954653 333.689476 464.286219 333.759532 466.178445 332.708693 466.949352 334.530147 471.014134 336.841993 473.677267 336.141434 475.639576 338.733503 475.849823 340.344789 478.232627 343.777529 478.372792 346.85999 475.709658 347.000102 482.507656 348.821556 482.998233 350.923233 482.227326 353.865582 482.647821 355.897204 482.507656 356.667819 481.17609 360.030503 479.353946 361.992069 477.742049 367.106151 476.971143 366.825928 480.265018 367.456431 482.017079 367.246263 485.030624 371.729842 489.025324 376.143366 489.726148 377.824708 491.408127 380.486833 492.249117 382.238231 493.580683 384.690188 493.510601 387.002034 494.842167 387.352313 497.435218 388.192984 498.696702 388.403152 500.659011 387.282257 500.729093 389.173767 505.915194 396.669751 506.125442 396.249415 508.64841 396.809863 510.470554 399.051652 511.661955 400.172547 514.465253 399.822267 517.969376 398.91154 519.931684 399.471988 522.454653 398.351093 523.365724 399.682156 525.888693 399.962379 531.915783 404.165735 532.756773 405.636909 531.915783 408.36909 533.107185 409.209761 534.438751 409.91032 538.503534 410.540824 540.255595 411.941942 540.465842 413.34306 539.694935 414.814235 540.535925 415.024403 542.98881 414.814235 545.651943 414.323843 548.174912 416.145297 547.333922 418.317031 549.926973 418.667311 553.501178 415.724962 555.954064 413.413116 557.776207 409.700153 562.121319 405.566853 568.14841 407.948754 567.657833 412.292222 571.091873 413.623284 570.951708 417.966751 573.825088 421.329436 576.277974 423.991561 579.291519 422.660498 581.393993 424.131673 583.987044 426.163294 581.393993 427.214133 577.189046 429.455923 575.086572 432.188104 571.58245 435.34062 563.733216 437.722522 561.28033 438.282969 559.107774 438.493137 554.622497 437.58241 552.169611 437.792578 548.805654 440.66487 544.390459 444.868226 540.816254 449.071581 539.55477 451.593594 537.522379 457.548348 535.8404 461.681647 535.8404 462.452262 533.177267 465.394611 531.214959 465.814947 526.6596 469.387799 520.842756 469.738078 514.885748 470.858973 513.063604 471.069141 510.190224 471.839756 503.252061 471.139197 494.91225 472.11998 491.618375 473.100763 491.548292 475.832944 487.693757 478.144789 482.647821 483.539095 476.480565 485.430605 473.537102 486.831723 466.178445 486.131164 463.44523 484.730046 457.768551 483.258871 456.366902 479.896187 456.226737 476.883782 454.895171 471.7697 449.919317 465.885003 446.204947 460.000305 446.415194 452.364209 444.032391 447.810574 445.43404 448.371022 442.981154 446.479512 440.318021 439.894255 437.654888 434.920285 436.042992 431.977936 438.916372 431.767768 434.501178 424.832232 433.800353 423.641281 432.398704 426.58363 428.754417 426.513574 425.670789 424.411896 424.969965 422.310219 417.12073 421.399492 414.667845 420.068429 414.878092 417.616472 418.942874 416.355465 422.236749 414.884291 423.918728 412.992781 424.26914 412.432334 423.007656 411.591662 422.797409 410.330656 424.058893 408.649314 423.147821 406.407524 422.166667 404.516014 422.657244 402.904728 422.236749 402.554448 423.498233 403.184952 424.409305 402.834672 425.320377 400.662938 424.969965"></polygon>
        </g>
    </g>
</svg>