<?xml version="1.0" encoding="UTF-8"?>
<svg width="1390px" height="764px" viewBox="0 0 1390 764" version="1.1" xmlns="http://www.w3.org/2000/svg" xmlns:xlink="http://www.w3.org/1999/xlink">
    <!-- Generator: Sketch 46.2 (44496) - http://www.bohemiancoding.com/sketch -->
    <title>Artboard Copy 6</title>
    <desc>Created with Sketch.</desc>
    <defs></defs>
    <g id="Page-1" stroke="none" stroke-width="1" fill="none" fill-rule="evenodd">
        <g id="Artboard-Copy-6" fill="#F25D2E">
            <path d="M400.662938,226.356302 L400.172547,224.253828 L398.421149,225.585395 L398.771429,227.057126 L402.69456,228.87927 L404.025623,228.59894 L406.337468,226.846879 L403.04484,226.916961 L400.662938,226.356302 L400.662938,226.356302 Z M410.750991,215.213192 L410.891103,214.442285 L408.01881,212.620141 L403.885511,211.498822 L402.554448,211.919317 L405.006406,213.951708 L408.999593,215.283274 L410.750991,215.213192 L410.750991,215.213192 Z M196.870259,217.806243 L197.010371,215.423439 L194.768582,213.601296 L194.488358,211.568905 L194.418302,210.097173 L191.546009,209.606596 L189.864667,208.975854 L186.992374,207.9947 L186.011591,209.045936 L185.591256,211.358657 L188.60366,212.129564 L188.323437,213.391048 L190.355058,214.932862 L190.355058,216.474676 L194.768582,218.436985 L196.870259,217.806243 L196.870259,217.806243 Z M432.328216,208.345112 L435.060397,205.681979 L436.041179,204.490577 L434.570005,204.28033 L431.137265,205.822144 L428.194916,208.275029 L422.520386,215.14311 L418.807422,217.73616 L419.928317,218.927562 L417.266192,220.469376 L417.406304,221.800942 L424.131673,221.871025 L427.914692,221.660777 L430.997153,222.712014 L427.914692,224.744405 L429.946314,224.88457 L435.060397,221.100118 L435.901068,221.660777 L434.14967,225.234982 L436.251347,226.075972 L437.862633,225.935807 L440.314591,222.081272 L439.964311,219.348057 L440.174479,217.035336 L437.58241,217.806243 L439.543976,214.58245 L436.531571,213.250883 L434.640061,214.30212 L431.90788,213.110718 L433.589222,211.638987 L431.5576,210.727915 L428.895475,212.129564 L432.328216,208.345112 L432.328216,208.345112 Z M182.368683,193.487633 L181.037621,194.889282 L180.056838,196.711425 L180.687341,198.042992 L180.267006,200.0053 L180.757397,201.967609 L182.08846,201.967609 L181.948348,198.533569 L186.922318,193.69788 L183.489578,194.048292 L182.368683,193.487633 Z M379.15577,160.548881 L378.875547,159.707892 L377.684596,159.637809 L375.72303,160.829211 L375.442806,161.109541 L375.512862,162.300942 L376.703813,162.651355 L379.15577,160.548881 L379.15577,160.548881 Z M372.430402,158.306243 L372.990849,157.535336 L368.787494,157.465253 L365.354753,159.357479 L365.354753,160.408716 L367.456431,160.548881 L372.430402,158.306243 Z M370.258668,146.672556 L368.367158,146.322144 L364.864362,149.966431 L362.342349,153.050059 L358.349161,155.012367 L362.762684,154.591873 L362.202237,156.974676 L367.946823,154.872203 L372.29029,152.769729 L372.850737,154.591873 L376.984037,155.502945 L380.416777,154.241461 L379.085714,152.979976 L376.703813,153.260306 L377.61454,151.36808 L375.022471,150.176678 L372.640569,148.845112 L371.589731,147.793875 L369.628165,148.424617 L370.258668,146.672556 L370.258668,146.672556 Z M401.50361,140.925795 L404.095679,139.734393 L404.796238,139.243816 L405.777021,137.63192 L404.165735,136.580683 L401.223386,137.07126 L398.561261,139.243816 L398.070869,141.06596 L401.50361,140.925795 Z M349.802339,133.426973 L349.241891,132.025324 L349.031723,131.324499 L347.910829,130.623675 L345.809151,129.572438 L342.376411,131.184335 L338.873615,132.375736 L341.325572,134.057715 L343.987697,133.63722 L346.85999,134.758539 L349.802339,133.426973 L349.802339,133.426973 Z M365.494865,131.955241 L360.871174,131.254417 L364.864362,129.432273 L364.584138,125.227326 L363.253076,123.61543 L360.100559,123.05477 L354.426029,125.717903 L350.572954,129.782686 L352.604575,131.254417 L353.72547,133.567138 L349.311947,137.421673 L347.070158,137.281508 L342.72669,140.365135 L345.669039,136.720848 L342.306355,135.459364 L339.153838,136.090106 L337.472496,138.472909 L333.339197,138.402827 L328.29517,138.963486 L324.722318,137.281508 L321.219522,137.561837 L320.168683,135.529446 L318.697509,134.618375 L316.035384,134.968787 L312.392476,135.179034 L309.310015,136.440518 L310.711134,138.052415 L305.807219,140.014723 L304.826436,137.702002 L301.743976,138.402827 L293.477377,138.823322 L288.993798,137.982332 L294.948551,136.160188 L292.986985,134.19788 L289.904525,134.47821 L286.611896,133.777385 L281.357702,132.445819 L278.695577,130.833922 L275.54306,130.623675 L273.231215,131.744994 L269.097916,132.375736 L271.830097,129.502356 L265.24484,132.025324 L264.264057,128.731449 L262.792883,128.310954 L260.130757,130.063015 L256.978241,130.904005 L256.838129,129.362191 L251.093543,130.343345 L244.928622,131.955241 L241.285714,131.534747 L236.3818,132.656066 L232.038332,134.267962 L229.446263,133.91755 L227.134418,132.095406 L223.001118,131.184335 L223.001118,131.184335 L205.977529,145.340989 L181.177733,168.047703 L184.120081,168.117786 L186.011591,169.239105 L186.431927,171.061249 L186.572039,173.794464 L191.896289,171.481743 L196.379868,170.150177 L196.029588,172.25265 L196.51998,173.934629 L197.71093,175.826855 L196.940315,178.770318 L195.889476,183.535925 L199.112049,186.199058 L196.940315,188.792108 L193.367463,190.824499 L193.367463,190.824499 L191.616065,192.997055 L193.087239,196.080683 L190.915506,199.514723 L193.787799,201.336867 L191.265785,203.929918 L190.355058,207.784452 L195.188917,209.536514 L196.309812,211.42874 L200.092832,215.703769 L200.583223,215.703769 L210.320996,215.703769 L220.549161,215.703769 L223.911845,215.703769 L234.420234,215.703769 L244.578343,215.703769 L254.876563,215.703769 L265.24484,215.703769 L276.944179,215.703769 L288.713574,215.703769 L295.789222,215.703769 L296.699949,214.02179 L297.820844,214.02179 L297.260397,216.404594 L297.960956,217.105418 L300.202745,217.385748 L303.425318,218.086572 L306.087443,219.418139 L309.169903,218.857479 L312.882867,219.978799 L312.882867,219.978799 L315.124657,218.29682 L317.366446,217.595995 L318.627453,216.544759 L319.678292,215.984099 L322.480529,216.825088 L324.792374,216.965253 L325.352822,217.525913 L325.422877,219.978799 L329.065785,220.679623 L327.874835,221.871025 L328.715506,223.202591 L327.384443,224.814488 L328.64545,225.375147 L327.314387,226.846879 L327.314387,226.846879 L328.155058,226.987044 L329.065785,226.356302 L329.416065,227.337456 L331.797966,227.828033 L334.460092,227.898115 L337.122217,228.31861 L339.924453,229.1596 L340.484901,230.561249 L341.465684,233.855124 L339.784342,235.256773 L337.122217,234.696113 L336.421657,232.03298 L335.791154,234.766196 L333.129029,237.148999 L332.568582,239.18139 L331.797966,240.372792 L328.925674,241.774441 L328.925674,241.774441 L326.333604,244.157244 L324.932486,245.699058 L326.823996,245.979388 L329.976512,244.577739 L332.008134,243.386337 L333.129029,243.17609 L334.950483,243.596584 L336.141434,242.965842 L338.102999,242.405183 L341.395628,241.844523 L341.395628,241.844523 L341.395628,241.844523 L341.605796,240.583039 L341.395628,240.653121 L340.204677,240.863369 L338.943671,240.442874 L340.554957,238.971143 L341.886019,238.480565 L344.6182,237.849823 L347.840773,237.219081 L349.101779,238.060071 L350.432842,237.078916 L351.763904,236.518257 L352.394408,236.798587 L352.464464,236.868669 L357.15821,233.925206 L359.04972,233.084217 L364.444026,233.084217 L370.959227,233.084217 L371.659786,231.962898 L372.850737,231.75265 L374.602135,231.121908 L376.493645,229.1596 L378.735435,225.725559 L382.58851,222.431684 L383.359126,223.623086 L385.951195,222.852179 L387.002034,224.113663 L385.040468,230.070671 L386.511642,232.523557 L390.644942,231.962898 L396.319471,231.822733 L389.033655,235.396938 L387.982816,239.041225 L390.574886,239.391637 L395.548856,236.237927 L399.6121,234.555948 L408.158922,231.962898 L413.413116,229.089517 L411.591662,227.547703 L412.292222,224.393993 L407.318251,229.299764 L401.293442,229.860424 L397.440366,227.687868 L397.37031,224.464075 L397.790646,219.698469 L402.064057,216.825088 L399.752211,214.652532 L394.427961,215.073027 L385.951195,218.717314 L378.315099,224.464075 L375.092527,225.1649 L380.556889,221.1702 L387.632537,215.353357 L392.676563,213.461131 L396.669751,210.377503 L400.312659,210.027091 L405.426741,210.097173 L412.432334,211.008245 L418.457143,210.30742 L423.921505,206.733216 L430.01637,205.191402 L432.958719,203.71967 L435.901068,202.107774 L437.302186,197.342167 L436.531571,195.730271 L434.14967,195.169611 L434.14967,191.595406 L432.538383,190.26384 L427.704525,189.142521 L425.742959,186.759717 L422.380275,184.376914 L424.762176,181.783863 L423.361057,176.808009 L421.539603,171.551826 L420.839044,167.907538 L417.82664,169.799764 L412.642501,174.355124 L406.967972,176.597762 L405.847077,174.214959 L403.255008,173.514134 L404.796238,168.398115 L406.617692,164.964075 L401.223386,164.613663 L401.15333,163.071849 L398.631317,160.759128 L396.529639,159.357479 L393.377123,160.408716 L390.434774,160.058304 L385.811083,158.936985 L383.078902,159.848057 L380.416777,166.155477 L379.716218,169.869847 L373.551296,174.144876 L375.72303,177.298587 L376.07331,180.802709 L374.882359,183.606007 L371.589731,186.479388 L366.335536,189.42285 L360.030503,191.385159 L361.221454,193.627797 L359.680224,200.355713 L355.757092,204.770907 L352.53452,206.102473 L349.452059,202.037691 L349.382003,197.272085 L350.572954,193.067138 L353.094967,189.42285 L349.732283,189.002356 L344.478088,188.722026 L341.956075,186.969965 L338.593391,185.848645 L337.40244,183.816254 L335.090595,182.274441 L330.18668,180.452297 L325.21271,181.293286 L325.703101,178.139576 L326.75394,174.285041 L322.550585,173.584217 L325.983325,168.81861 L329.416065,165.594817 L336.001322,161.039458 L342.026131,157.815665 L345.949263,157.325088 L347.980885,154.732038 L351.553737,153.050059 L356.037316,152.769729 L361.431622,150.106596 L363.463244,148.424617 L368.647382,145.130742 L370.889171,143.168433 L373.130961,144.359835 L377.684596,143.729093 L385.250635,141.06596 L386.861922,139.173734 L386.301474,137.141343 L389.80427,135.108952 L390.995221,133.216726 L388.543264,131.394582 L384.760244,130.833922 L380.907168,130.553592 L377.684596,134.688457 L373.130961,137.91225 L368.086934,140.715548 L367.176207,138.122497 L370.118556,135.319199 L368.577326,132.866313 L362.482461,135.809776 L365.494865,131.955241 L365.494865,131.955241 Z M312.602644,118.709658 L310.641078,118.008834 L300.763193,120.251472 L297.190341,121.653121 L291.725979,124.386337 L295.508998,125.367491 L299.852466,125.297409 L291.796035,126.76914 L291.796035,128.100707 L295.719166,128.170789 L302.024199,127.890459 L306.577834,128.731449 L302.234367,129.432273 L298.381291,129.222026 L293.407321,129.852768 L291.095475,130.273263 L291.515811,133.216726 L294.45816,132.796231 L297.330452,133.847468 L297.120285,135.599529 L302.584647,135.249117 L310.43091,134.688457 L317.016167,133.426973 L320.518963,133.146643 L324.51215,134.19788 L329.205897,134.758539 L331.377631,133.426973 L330.887239,131.955241 L335.791154,131.674912 L337.612608,129.992933 L334.109812,128.240872 L331.167463,126.418728 L332.848805,123.89576 L334.740315,120.321555 L333.199085,118.919906 L331.097407,118.289164 L328.155058,118.849823 L326.193493,122.564193 L323.181088,124.035925 L324.722318,120.46172 L323.531368,119.270318 L318.417285,121.162544 L316.595831,119.3404 L309.310015,120.391637 L312.602644,118.709658 L312.602644,118.709658 Z M339.994509,117.658422 L338.803559,116.887515 L335.020539,117.02768 L333.549365,117.518257 L335.090595,120.041225 L339.994509,117.658422 Z M415.444738,118.779741 L412.362278,116.817432 L406.47758,116.46702 L405.006406,116.677267 L403.815455,117.938751 L405.216573,119.90106 L405.847077,120.111307 L409.209761,119.62073 L412.082054,119.690813 L414.954347,119.760895 L415.444738,118.779741 L415.444738,118.779741 Z M387.842705,118.569494 L391.835892,116.326855 L383.989629,117.237927 L379.926385,118.709658 L374.952415,121.933451 L372.640569,125.577739 L376.563701,125.647821 L372.29029,127.259717 L373.551296,128.591284 L377.684596,129.151943 L382.798678,130.20318 L392.466396,131.04417 L398.000813,130.623675 L400.242603,129.502356 L401.643721,130.76384 L403.955567,130.974087 L405.356685,133.286808 L402.904728,134.267962 L407.878699,135.529446 L411.101271,137.35159 L411.451551,138.683157 L411.171327,140.365135 L405.146518,144.149588 L402.904728,146.041814 L403.04484,147.443463 L396.599695,147.93404 L390.995221,148.004122 L387.212201,150.947585 L388.893543,152.279152 L398.000813,151.64841 L398.631317,150.527091 L401.923945,152.419317 L405.216573,154.451708 L403.535231,155.573027 L406.197356,157.535336 L411.521607,159.848057 L419.01759,161.459953 L419.227758,160.058304 L417.266192,157.605418 L414.814235,154.171378 L420.768988,157.395171 L424.061617,158.446408 L426.58363,155.573027 L426.58363,151.64841 L425.883071,150.597173 L422.80061,148.845112 L420.9091,146.532391 L422.520386,144.289753 L426.58363,143.799176 L429.245755,147.583628 L432.047992,149.265607 L439.543976,144.710247 L441.855821,141.977032 L437.372242,141.766784 L435.130452,138.19258 L430.997153,137.35159 L425.602847,134.898704 L431.90788,133.146643 L431.347433,129.642521 L429.806202,128.170789 L423.991561,126.699058 L422.660498,124.386337 L416.915913,125.227326 L417.686528,123.61543 L415.164514,121.863369 L410.400712,120.041225 L406.757804,121.512956 L400.452771,122.564193 L402.764616,120.18139 L401.15333,116.46702 L393.026843,117.938751 L388.052872,120.812132 L387.842705,118.569494 L387.842705,118.569494 Z M352.814743,116.18669 L347.840773,117.868669 L348.471276,120.251472 L343.287138,119.760895 L342.096187,120.952297 L346.159431,123.685512 L346.789934,125.087161 L349.171835,125.437574 L355.056533,124.035925 L358.629385,120.742049 L355.96726,119.200236 L360.170615,117.518257 L360.520895,116.46702 L355.266701,116.887515 L352.814743,116.18669 L352.814743,116.18669 Z M368.437214,119.971143 L372.360346,119.270318 L379.365938,116.116608 L375.092527,115.275618 L369.628165,115.135453 L365.985257,116.116608 L363.042908,117.588339 L361.29151,119.410483 L360.030503,122.564193 L363.042908,122.704358 L368.437214,119.971143 L368.437214,119.971143 Z M288.083071,125.017079 L289.904525,123.405183 L296.279614,120.882214 L305.947331,118.359246 L310.43091,117.448174 L309.310015,115.976443 L307.978953,114.925206 L301.393696,114.785041 L298.521403,114.014134 L288.713574,114.574794 L288.503406,116.74735 L283.179156,119.060071 L277.995018,121.723204 L274.982613,123.265018 L279.115913,125.157244 L278.695577,126.76914 L288.083071,125.017079 L288.083071,125.017079 Z M375.022471,112.191991 L375.232639,111.070671 L374.251856,109.87927 L369.417997,110.790342 L366.335536,112.332155 L368.577326,113.243227 L372.150178,113.523557 L375.022471,112.191991 L375.022471,112.191991 Z M368.927605,106.1649 L368.15699,106.655477 L364.794306,106.44523 L359.470056,107.566549 L356.807931,107.496466 L353.795526,110.1596 L358.419217,109.87927 L356.037316,111.911661 L358.279105,112.47232 L363.042908,112.121908 L367.106151,109.528857 L369.067717,107.776796 L368.927605,106.1649 Z M341.53574,107.916961 L342.796746,106.305065 L340.625013,105.954653 L336.631825,107.146054 L336.141434,110.439929 L331.868022,110.1596 L329.906457,108.127208 L324.161871,107.005889 L320.378851,107.987044 L312.252364,111.351001 L315.124657,111.911661 L327.594611,111.561249 L320.168683,113.103062 L319.117844,114.224382 L323.251144,114.154299 L331.797966,112.612485 L341.465684,112.051826 L345.038536,110.439929 L346.649822,108.757951 L344.057753,108.617786 L341.045348,109.178445 L341.53574,107.916961 L341.53574,107.916961 Z M380.206609,104.903416 L375.232639,104.693168 L372.570513,106.094817 L374.391967,107.146054 L379.295882,107.566549 L380.276665,109.03828 L378.735435,110.720259 L377.684596,112.682568 L383.639349,113.803887 L387.492425,114.224382 L393.096899,114.154299 L401.223386,113.59364 L404.235791,114.014134 L408.929537,113.31331 L411.381495,112.332155 L412.082054,110.930506 L410.470768,109.59894 L406.407524,109.388693 L400.80305,109.669022 L395.899136,110.439929 L392.326284,110.1596 L388.963599,109.949352 L388.122928,109.178445 L385.951195,108.407538 L387.912761,107.075972 L386.931978,105.954653 L381.817895,106.024735 L380.206609,104.903416 L380.206609,104.903416 Z M327.664667,103.081272 L323.461312,103.571849 L319.608236,103.501767 L311.131469,105.674323 L303.004982,108.267373 L303.004982,108.267373 L305.526995,108.968198 L310.43091,108.477621 L317.29639,107.005889 L319.958516,106.795642 L323.601423,105.674323 L327.664667,103.081272 L327.664667,103.081272 Z M384.059685,103.501767 L384.760244,103.151355 L383.709405,102.520612 L378.665379,102.45053 L378.245043,103.361602 L382.728622,103.571849 L384.059685,103.501767 L384.059685,103.501767 Z M343.147026,102.941107 L345.388815,101.959953 L342.516523,101.399293 L338.383223,101.749706 L334.810371,102.800942 L337.122217,103.852179 L343.147026,102.941107 Z M348.611388,99.9976443 L346.299542,99.3669022 L345.178648,99.2267373 L341.18546,100.137809 L340.484901,100.628386 L344.688256,100.628386 L348.611388,99.9976443 L348.611388,99.9976443 Z M381.117336,101.749706 L383.219014,100.558304 L381.607728,99.4369847 L380.416777,99.2267373 L377.334316,99.1566549 L375.863142,100.418139 L375.37275,101.679623 L376.493645,102.45053 L381.117336,101.749706 Z M371.519675,100.908716 L371.589731,99.3669022 L366.405592,98.1755006 L362.132181,97.7550059 L360.661007,98.9464075 L362.622572,99.7173145 L358.909609,100.698469 L364.303915,100.838634 L367.106151,101.88987 L370.749059,102.240283 L371.519675,100.908716 L371.519675,100.908716 Z M409.139705,96.6336867 L409.560041,94.6713781 L406.267412,94.1107185 L402.974784,93.4799764 L401.853889,91.9381625 L396.109304,92.0783274 L396.319471,92.7090695 L393.58729,92.9193168 L390.714997,93.8303887 L387.282257,95.1619552 L387.072089,96.4935218 L388.473208,97.5447585 L393.026843,97.5447585 L390.014438,98.3857479 L388.543264,99.5070671 L389.664159,100.838634 L394.357905,101.259128 L399.121708,100.978799 L406.47758,98.5959953 L410.961159,97.6849234 L409.139705,96.6336867 L409.139705,96.6336867 Z M464.133604,86.9623086 L459.22969,86.8221437 L454.395831,86.6118963 L447.250127,87.032391 L446.269344,86.7520612 L439.053584,86.8922261 L434.570005,87.1725559 L430.997153,87.5930506 L427.494357,88.9946996 L425.883071,88.2938751 L423.15089,88.1537102 L418.457143,89.1348645 L413.273005,89.5553592 L410.400712,89.6254417 L406.197356,90.1861013 L405.426741,91.0971731 L407.178139,91.9381625 L407.738587,93.0594817 L410.821047,94.1107185 L419.507982,93.9004711 L424.552008,94.2508834 L419.507982,95.3021201 L417.966751,95.0217903 L411.451551,94.8816254 L410.680935,96.4234393 L412.782613,97.614841 L410.821047,98.7361602 L405.566853,99.5070671 L402.134113,100.698469 L405.496797,101.329211 L406.687748,103.431684 L401.433554,102.030035 L399.682156,102.240283 L398.281037,104.623086 L392.676563,105.393993 L391.275445,107.005889 L395.969192,107.216137 L399.401932,107.636631 L407.598475,107.075972 L413.483172,108.057126 L422.310219,105.954653 L423.010778,105.183746 L418.527199,105.32391 L418.877478,104.553004 L423.431113,103.571849 L425.953127,102.240283 L430.716929,101.329211 L434.219725,100.207892 L433.659278,98.6660777 L435.971124,98.1054181 L432.958719,97.6849234 L440.734926,97.4045936 L442.976716,96.7738516 L448.511134,96.213192 L455.026335,93.7603062 L459.790137,92.9893993 L467.005897,91.237338 L461.821759,91.237338 L464.55394,90.606596 L470.858973,90.0459364 L477.654398,88.9246172 L478.425013,88.1537102 L474.782105,87.4528857 L470.088358,87.1725559 L464.133604,86.9623086 L464.133604,86.9623086 Z" id="CA"></path>
        </g>
    </g>
</svg>