<?xml version="1.0" encoding="UTF-8"?>
<svg width="1390px" height="764px" viewBox="0 0 1390 764" version="1.1" xmlns="http://www.w3.org/2000/svg" xmlns:xlink="http://www.w3.org/1999/xlink">
    <!-- Generator: Sketch 46.2 (44496) - http://www.bohemiancoding.com/sketch -->
    <title>Artboard Copy 14</title>
    <desc>Created with Sketch.</desc>
    <defs></defs>
    <g id="Page-1" stroke="none" stroke-width="1" fill="none" fill-rule="evenodd">
        <g id="Artboard-Copy-14" fill="#F25D2E">
            <path d="M680.045958,262.729093 L677.243721,263.079505 L673.600813,263.570082 L669.257346,263.149588 L668.837011,265.532391 L674.091205,267.845112 L675.982715,268.335689 L678.925064,270.017668 L679.555567,267.704947 L678.925064,266.303298 L680.045958,262.729093 L680.045958,262.729093 Z M656.437112,249.48351 L654.685714,250.815077 L652.724148,250.604829 L653.634875,253.127797 L653.915099,258.454064 L655.386274,259.645465 L656.787392,258.173734 L658.468734,258.454064 L658.748958,252.567138 L656.437112,249.48351 L656.437112,249.48351 Z M666.455109,225.44523 L665.544382,223.903416 L662.181698,224.674323 L661.831418,225.515312 L659.659685,224.88457 L659.449517,226.636631 L657.978343,227.407538 L655.316218,226.846879 L654.685714,228.59894 L653.004372,228.739105 L652.373869,228.03828 L650.482359,229.510012 L648.801017,229.720259 L647.259786,228.809187 L647.119675,230.000589 L648.240569,231.682568 L647.049619,232.944052 L648.100458,236.308009 L649.991967,236.868669 L649.641688,238.760895 L651.112862,238.410483 L653.074428,236.448174 L654.685714,235.817432 L657.628063,237.289164 L659.449517,237.779741 L660.78058,241.984688 L663.302593,244.507656 L666.735333,247.310954 L669.677682,249.273263 L672.409863,249.553592 L674.021149,251.305654 L676.40305,252.146643 L677.594001,254.038869 L679.135231,254.599529 L680.396238,256.842167 L682.007524,259.435218 L681.236909,260.34629 L680.676462,262.799176 L680.746518,264.200824 L682.217692,263.850412 L683.96909,259.925795 L685.440264,259.645465 L685.720488,257.332744 L682.988307,255.720848 L684.31937,252.847468 L687.471886,253.548292 L689.64362,255.650766 L690.204067,254.038869 L689.783732,253.19788 L686.491103,250.955241 L683.758922,249.623675 L680.396238,248.011779 L681.377021,247.170789 L680.396238,246.189635 L677.594001,246.259717 L673.390646,242.755595 L671.359024,239.18139 L667.926284,237.008834 L666.595221,234.836278 L666.945501,233.574794 L666.665277,231.47232 L669.397458,229.930506 L672.269751,230.561249 L671.288968,228.669022 L671.499136,226.566549 L666.455109,225.44523 L666.455109,225.44523 Z" id="IT"></path>
        </g>
    </g>
</svg>