<?xml version="1.0" encoding="UTF-8"?>
<svg width="1390px" height="764px" viewBox="0 0 1390 764" version="1.1" xmlns="http://www.w3.org/2000/svg" xmlns:xlink="http://www.w3.org/1999/xlink">
    <!-- Generator: Sketch 46.2 (44496) - http://www.bohemiancoding.com/sketch -->
    <title>Artboard Copy 9</title>
    <desc>Created with Sketch.</desc>
    <defs></defs>
    <g id="Page-1" stroke="none" stroke-width="1" fill="none" fill-rule="evenodd">
        <g id="Artboard-Copy-9" fill="#F25D2E">
            <path d="M872.349466,99.0865724 L869.19695,96.2832744 L859.669344,93.409894 L853.084087,91.9381625 L848.74062,92.5689046 L845.027656,94.6012956 L849.0909,95.1619552 L853.714591,97.4045936 L859.319065,98.5959953 L867.375496,99.5070671 L872.349466,99.0865724 L872.349466,99.0865724 Z M747.159532,93.9705536 L747.790036,93.5500589 L743.796848,92.9193168 L741.835282,93.409894 L740.924555,94.1107185 L739.873716,93.2697291 L736.230808,93.3398115 L731.887341,93.9004711 L737.281647,93.9705536 L736.511032,94.8816254 L739.593493,95.5824499 L742.115506,95.0918728 L742.185562,94.6012956 L744.217184,94.3910483 L747.159532,93.9705536 L747.159532,93.9705536 Z M887.621657,100.908716 L886.570819,99.647232 L877.813828,97.8250883 L875.71215,97.614841 L874.17092,97.9652532 L875.011591,102.1702 L887.621657,100.908716 L887.621657,100.908716 Z M898.270158,105.32391 L891.825013,104.833333 L894.206914,103.992344 L888.462328,102.941107 L884.188917,104.272674 L883.488358,105.674323 L884.539197,107.146054 L879.705338,107.075972 L875.992374,108.898115 L872.979969,108.127208 L866.464769,108.477621 L866.674936,109.388693 L860.229792,109.87927 L856.797051,111.561249 L853.854703,111.701413 L853.014032,114.014134 L856.867107,115.836278 L851.472801,116.326855 L844.817489,116.116608 L840.754245,116.887515 L844.116929,120.671967 L848.950788,123.685512 L842.225419,121.583039 L836.691002,121.793286 L833.118149,123.194935 L836.270666,125.858068 L832.837926,125.157244 L831.366751,121.653121 L828.424403,119.690813 L827.163396,119.760895 L829.685409,122.353946 L826.462837,124.806832 L832.137367,127.750294 L832.41759,131.534747 L834.449212,133.567138 L837.74184,133.91755 L838.022064,136.370436 L841.104525,138.542992 L839.773462,140.365135 L840.123742,142.257362 L837.531673,143.238516 L837.181393,144.640165 L833.468429,144.079505 L835.920386,138.613074 L835.570107,136.090106 L830.87636,133.777385 L828.214235,128.661366 L825.622166,126.068316 L823.100153,124.946996 L823.6606,122.003534 L821.628978,119.971143 L813.712659,118.989988 L812.241484,119.690813 L812.591764,122.984688 L809.579359,126.278563 L810.420031,127.469965 L813.712659,130.343345 L813.782715,132.165489 L817.495679,132.515901 L818.056126,133.286808 L822.11937,135.319199 L821.41881,137.281508 L808.458465,133.006478 L803.834774,131.815077 L794.867616,130.693757 L794.026945,131.885159 L798.160244,134.057715 L796.268734,136.580683 L791.785155,134.338045 L788.282359,135.879859 L782.958109,135.949941 L781.486934,137.281508 L777.773971,136.861013 L779.525369,134.548292 L777.283579,134.408127 L768.666701,137.63192 L763.34245,139.454064 L763.622674,141.906949 L759.419319,142.747939 L756.617082,141.416372 L755.776411,139.313899 L759.279207,138.823322 L756.757194,136.720848 L748.210371,135.459364 L751.222776,137.842167 L750.662328,140.084806 L753.954957,142.397527 L753.184342,145.06066 L749.961769,143.729093 L747.159532,143.518846 L741.555058,147.303298 L744.497407,150.176678 L742.255618,151.157833 L734.269243,148.704947 L732.798068,150.176678 L735.109914,151.858657 L735.250025,153.750883 L732.5879,152.769729 L728.384545,151.578327 L727.053482,147.513545 L726.352923,145.691402 L720.748449,142.888104 L722.780071,142.397527 L736.861312,145.340989 L741.344891,144.289753 L743.93696,142.257362 L742.816065,139.734393 L740.013828,137.91225 L727.683986,133.63722 L719.557499,132.726148 L714.233249,130.48351 L711.711235,131.744994 L711.711235,131.744994 L707.227656,133.286808 L704.985867,133.63722 L705.26609,136.230271 L710.310117,138.823322 L708.348551,141.696702 L712.83213,146.111896 L711.641179,149.475854 L715.07392,152.349234 L714.443416,154.942285 L719.557499,157.675501 L718.926995,159.707892 L716.61515,162.020612 L711.080732,167.206714 L711.080732,167.206714 L714.793696,169.169022 L711.641179,171.411661 L711.641179,171.411661 L712.271683,172.112485 L710.450229,174.495289 L712.201627,178.349823 L711.080732,179.68139 L712.762074,180.662544 L713.462633,182.624853 L714.933808,185.147821 L718.576716,186.199058 L719.277275,187.180212 L720.888561,186.689635 L724.251246,187.670789 L724.951805,189.70318 L724.531469,190.824499 L727.123538,193.557715 L728.664769,194.328622 L728.594713,195.099529 L730.976614,195.870436 L732.167565,196.991755 L731.04667,197.902827 L728.314489,197.762662 L727.754042,198.183157 L728.804881,199.584806 L730.205999,202.318021 L730.205999,202.318021 L731.467006,202.458186 L732.167565,201.477032 L733.218404,201.687279 L736.581088,201.336867 L739.243213,203.71967 L738.61271,204.630742 L739.103101,205.962309 L741.905338,206.102473 L743.446568,207.9947 L743.58668,208.835689 L748.210371,210.377503 L750.662328,209.676678 L753.184342,211.709069 L755.215963,211.638987 L760.540214,213.040636 L760.820437,214.372203 L759.90971,216.614841 L761.170717,218.997644 L760.960549,220.469376 L757.667921,220.819788 L756.12669,222.01119 L756.406914,223.973498 L759.349263,223.272674 L759.629487,224.183746 L754.865684,226.005889 L757.107473,227.687868 L754.865684,231.332155 L752.483782,232.03298 L755.986579,234.555948 L760.330046,236.237927 L765.514184,239.812132 L765.864464,239.321555 L769.01698,240.092462 L774.411286,240.793286 L779.66548,242.825677 L780.436096,243.666667 L782.467717,242.965842 L786.040569,243.876914 L787.511744,245.628975 L789.963701,246.61013 L791.01454,246.750294 L794.026945,249.413428 L795.708287,249.693757 L796.058566,248.642521 L797.88002,246.890459 L797.88002,246.890459 L792.765938,241.774441 L792.485714,238.90106 L788.352415,234.766196 L790.804372,230.351001 L794.026945,229.580094 L795.007728,226.987044 L793.046162,226.286219 L792.90605,224.043581 L789.963701,221.1702 L787.441688,221.310365 L783.728724,218.29682 L784.919675,215.002945 L783.728724,214.161955 L785.199898,209.396349 L789.403254,211.919317 L788.912862,208.695524 L794.587392,204.070082 L799.841586,203.929918 L808.178241,206.943463 L812.801932,208.625442 L815.814337,206.87338 L821.138587,206.733216 L826.252669,208.975854 L826.813116,207.71437 L831.646975,207.924617 L831.787087,205.822144 L825.20183,202.878681 L827.723843,200.84629 L826.673005,199.654888 L829.405186,198.533569 L825.902389,195.660188 L826.883172,194.188457 L838.652567,192.716726 L839.843518,191.665489 L847.409558,190.123675 L849.581291,188.371614 L855.886324,189.282686 L858.898729,193.69788 L861.911134,192.646643 L866.815048,194.118375 L867.655719,196.431095 L870.73818,196.150766 L877.113269,192.156066 L876.552822,193.487633 L882.367463,196.781508 L895.047585,207.644287 L895.8182,205.331567 L901.632842,207.854535 L905.976309,206.733216 L908.218099,207.504122 L911.090391,210.027091 L913.822572,210.86808 L916.134418,212.690224 L920.337773,212.059482 L923.350178,214.722615 L924.541129,214.372203 L927.833757,213.671378 L932.457448,209.886926 L936.590747,207.854535 L940.303711,209.186101 L943.876563,209.256184 L947.169192,211.288575 L950.671988,211.42874 L956.206406,212.550059 L957.887748,209.536514 L955.085511,207.013545 L955.996238,202.528269 L960.830097,204.28033 L964.192781,204.840989 L968.816472,205.892226 L971.408541,209.116019 L977.293238,210.938163 L980.025419,210.167256 L984.018607,209.606596 L987.801627,210.167256 L992.355262,212.269729 L995.788002,214.442285 L998.940519,214.442285 L1003.63427,215.14311 L1006.15628,214.02179 L1010.21952,213.320966 L1013.37204,210.237338 L1015.68388,210.727915 L1018.41607,212.199647 L1022.26914,211.849234 L1027.38322,213.461131 L1030.46568,210.727915 L1029.13462,208.835689 L1029.06457,204.28033 L1029.90524,202.878681 L1028.15384,200.56596 L1025.56177,199.514723 L1026.75272,197.41225 L1030.32557,196.641343 L1034.66904,196.501178 L1040.62379,197.762662 L1044.75709,199.374558 L1050.1514,203.649588 L1052.81352,205.541814 L1055.89598,208.134865 L1060.1694,212.409894 L1067.10493,213.741461 L1073.33991,216.895171 L1077.54326,220.959953 L1082.79746,220.959953 L1084.61891,219.207892 L1089.45277,217.946408 L1090.3635,221.871025 L1090.08327,223.482921 L1092.04484,228.248528 L1092.46518,232.453475 L1087.70137,231.682568 L1085.66975,233.224382 L1088.96238,236.938751 L1091.6245,242.05477 L1089.87311,242.124853 L1091.20417,244.297409 L1091.20417,244.297409 L1092.18495,245.068316 L1092.18495,245.068316 L1092.18495,245.068316 L1092.18495,245.068316 L1091.90473,243.666667 L1094.70696,240.512956 L1098.27982,242.61543 L1100.52161,242.545347 L1103.60407,240.022379 L1104.30463,237.429329 L1105.7758,232.453475 L1107.10686,227.407538 L1106.19614,224.393993 L1106.8967,218.086572 L1103.25379,211.14841 L1099.40071,206.032391 L1098.48998,201.687279 L1095.19736,198.113074 L1086.30025,193.41755 L1082.37712,193.13722 L1082.16695,195.239694 L1078.10371,194.328622 L1074.11052,191.665489 L1068.50605,191.174912 L1071.93879,181.293286 L1074.39075,173.233804 L1083.56807,171.97232 L1094.00641,172.673145 L1095.7578,170.710836 L1101.29222,171.271496 L1104.30463,174.285041 L1108.78821,173.864547 L1114.6729,172.743227 L1109.2786,170.290342 L1109.2786,163.422261 L1115.65369,162.090695 L1124.13045,167.066549 L1126.65247,162.581272 L1124.41068,159.287397 L1127.7033,158.936985 L1132.25694,164.613663 L1130.5756,167.837456 L1130.01515,172.042403 L1130.22532,177.298587 L1126.23213,178.209658 L1128.1937,180.101885 L1128.12364,182.624853 L1132.60722,188.441696 L1143.81617,197.832744 L1151.17204,204 L1155.16523,207.013545 L1156.28612,203.018846 L1153.1336,198.673734 L1157.12679,197.622497 L1153.34377,192.786808 L1156.84657,190.614252 L1153.55394,188.792108 L1151.17204,185.287986 L1154.04433,185.147821 L1147.7393,179.12073 L1143.04555,178.139576 L1141.01393,176.457597 L1140.24331,172.53298 L1138.07158,169.799764 L1142.9755,170.360424 L1143.88622,168.608363 L1147.17885,170.150177 L1151.45226,166.926384 L1159.43864,169.729682 L1158.24769,167.907538 L1159.64881,165.38457 L1160.69964,162.581272 L1162.87138,162.090695 L1167.42501,159.07715 L1174.29049,159.918139 L1173.65999,158.866902 L1170.99786,157.255006 L1168.12557,156.133687 L1161.75048,152.909894 L1156.07595,150.80742 L1160.34936,151.08775 L1161.75048,149.335689 L1161.75048,149.335689 L1138.70208,133.987633 L1132.11683,132.375736 L1121.11805,130.553592 L1115.58363,130.76384 L1104.93513,129.782686 L1106.19614,131.394582 L1112.15089,133.777385 L1110.39949,135.038869 L1100.45155,131.674912 L1095.68775,132.095406 L1089.2426,131.324499 L1084.33869,131.464664 L1081.60651,132.235571 L1076.56248,131.114252 L1072.98963,128.451119 L1068.43599,126.909305 L1061.99085,126.278563 L1051.69263,126.979388 L1040.41362,124.17609 L1034.94926,122.073616 L1006.85684,119.690813 L1005.38566,121.232627 L1011.90086,124.596584 L1006.64667,124.106007 L1005.94611,125.157244 L999.150686,124.035925 L995.64789,125.017079 L989.132689,123.3351 L991.234367,127.189635 L984.99939,125.717903 L977.993798,122.844523 L977.713574,121.302709 L973.510219,118.989988 L966.644738,117.167845 L962.371327,117.167845 L955.856126,116.537102 L959.148754,119.270318 L947.099136,118.709658 L944.366955,117.097762 L935.049517,116.46702 L931.336553,117.02768 L931.266497,117.938751 L927.203254,115.696113 L925.591967,116.326855 L920.547941,115.485866 L916.624809,114.995289 L917.395425,113.944052 L922.019115,111.981743 L923.630402,110.930506 L921.949059,109.178445 L918.095984,107.846879 L910.039553,106.234982 L902.473513,106.1649 L901.14245,107.005889 L898.270158,105.32391 L898.270158,105.32391 Z M784.639451,127.469965 L777.703915,124.456419 L775.532181,121.442874 L777.844026,118.008834 L779.805592,114.504711 L785.830402,111.210836 L792.695882,109.528857 L800.612201,107.846879 L801.522928,106.795642 L798.58058,105.464075 L793.956889,105.88457 L790.524148,107.146054 L782.327605,107.776796 L775.251957,109.949352 L770.488155,111.841578 L772.239553,113.383392 L767.615862,116.46702 L770.348043,116.957597 L766.565023,119.971143 L767.685918,121.933451 L765.304016,122.704358 L766.635079,124.666667 L772.169497,125.647821 L773.710727,127.259717 L783.098221,127.750294 L784.639451,127.469965 L784.639451,127.469965 Z M1004.61505,110.1596 L992.075038,108.337456 L984.929334,108.197291 L982.547433,108.828033 L984.929334,111.210836 L993.616268,113.453475 L996.768785,112.612485 L1006.71673,112.75265 L1004.61505,110.1596 L1004.61505,110.1596 Z M1022.26914,111.771496 L1014.0726,110.860424 L1008.32801,110.369847 L1009.51896,111.491166 L1016.73472,112.892815 L1021.49853,113.173145 L1022.26914,111.771496 L1022.26914,111.771496 Z M1013.51215,118.429329 L1011.76075,117.448174 L1005.94611,116.116608 L1003.07382,116.46702 L1002.51337,117.868669 L1003.28399,118.008834 L1009.44891,118.429329 L1013.51215,118.429329 L1013.51215,118.429329 Z M1127.42308,127.04947 L1123.21973,124.526502 L1122.23894,126.068316 L1124.6909,127.189635 L1127.42308,127.04947 Z M698.40061,192.85689 L697.980275,191.805654 L698.120386,190.614252 L696.579156,189.98351 L693.07636,189.212603 L688.662837,190.614252 L688.172445,192.436396 L692.305745,192.926973 L698.40061,192.85689 L698.40061,192.85689 Z M1111.52039,208.134865 L1106.47636,203.789753 L1102.90351,199.584806 L1098.13971,195.520024 L1094.70696,192.716726 L1093.79624,193.277385 L1096.8787,195.239694 L1095.54764,197.202002 L1100.31144,203.018846 L1105.7758,207.223793 L1110.25938,213.040636 L1111.94072,216.264429 L1115.7938,221.030035 L1118.45592,225.234982 L1121.6785,228.87927 L1121.60844,225.515312 L1126.16207,228.178445 L1124.0604,225.094817 L1117.40508,220.679623 L1114.81301,214.372203 L1121.04799,215.773852 L1111.52039,208.134865 L1111.52039,208.134865 Z" id="RU"></path>
        </g>
    </g>
</svg>