<?xml version="1.0" encoding="UTF-8"?>
<svg width="1390px" height="764px" viewBox="0 0 1390 764" version="1.1" xmlns="http://www.w3.org/2000/svg" xmlns:xlink="http://www.w3.org/1999/xlink">
    <!-- Generator: Sketch 46.2 (44496) - http://www.bohemiancoding.com/sketch -->
    <title>Artboard Copy 5</title>
    <desc>Created with Sketch.</desc>
    <defs></defs>
    <g id="Page-1" stroke="none" stroke-width="1" fill="none" fill-rule="evenodd">
        <g id="Artboard-Copy-5" fill="#F25D2E">
            <path d="M20.7496695,348.299764 L22.150788,347.669022 L23.9021861,346.687868 L24.0422979,346.407538 L23.4117946,344.865724 L22.9214032,344.305065 L22.3609558,343.88457 L21.0298932,343.113663 L20.7496695,343.043581 L20.4694459,343.464075 L20.4694459,344.375147 L19.6287748,345.075972 L19.3485511,345.566549 L19.6287748,347.178445 L19.2084392,348.439929 L20.0491103,349.070671 L20.7496695,348.299764 L20.7496695,348.299764 Z M20.329334,341.361602 L20.7496695,340.871025 L19.9089985,340.1702 L18.6479919,339.749706 L18.1576004,340.100118 L18.1576004,340.380448 L18.50788,340.73086 L18.9282156,341.712014 L20.329334,341.361602 L20.329334,341.361602 Z M18.2276563,338.978799 L16.4062023,338.838634 L15.9858668,339.329211 L18.0174886,339.469376 L18.2276563,338.978799 L18.2276563,338.978799 Z M14.935028,338.348057 L14.1644128,336.876325 L13.954245,336.595995 L12.7632944,337.226737 L12.8333503,337.366902 L13.113574,338.418139 L14.3745806,338.558304 L14.6548043,338.628386 L14.935028,338.348057 L14.935028,338.348057 Z M9.12038638,335.404594 L9.33055414,334.353357 L8.41982715,334.283274 L7.71926792,334.703769 L7.43904423,335.054181 L8.55993899,335.825088 L9.12038638,335.404594 L9.12038638,335.404594 Z M297.820844,214.02179 L296.699949,214.02179 L295.789222,215.703769 L288.713574,215.703769 L276.944179,215.703769 L265.24484,215.703769 L254.876563,215.703769 L244.578343,215.703769 L234.420234,215.703769 L223.911845,215.703769 L220.549161,215.703769 L210.320996,215.703769 L200.583223,215.703769 L199.462328,219.277974 L197.780986,222.852179 L196.1697,223.973498 L196.940315,219.838634 L192.877072,218.366902 L191.896289,219.207892 L191.616065,221.240283 L190.355058,225.024735 L187.41271,230.841578 L184.610473,234.766196 L181.808236,238.690813 L178.025216,242.755595 L177.254601,246.04947 L175.293035,249.76384 L172.560854,253.408127 L173.261413,255.790931 L171.930351,259.435218 L172.98119,263.21967 L173.891917,264.761484 L173.331469,265.812721 L173.611693,272.120141 L175.363091,276.675501 L174.802644,279.128386 L175.503203,279.829211 L178.725775,280.319788 L179.636502,281.51119 L181.598068,281.721437 L181.528012,283.053004 L183.069243,283.543581 L184.540417,286.136631 L184.330249,288.37927 L188.743772,288.028857 L193.647687,287.53828 L192.947128,288.449352 L197.921098,290.621908 L205.417082,293.705536 L212.913066,293.705536 L215.92547,293.705536 L216.485918,291.883392 L223.001118,291.883392 L223.911845,293.425206 L225.38302,294.826855 L227.064362,296.789164 L227.624809,299.101885 L227.905033,301.55477 L229.446263,302.886337 L232.2485,304.217903 L235.611185,300.713781 L238.693645,300.643698 L240.865379,302.39576 L241.986274,305.479388 L242.686833,308.072438 L244.368175,310.595406 L244.508287,313.749117 L245.068734,315.85159 L247.800915,317.253239 L250.322928,318.234393 L251.794103,318.094229 L251.373767,316.552415 L251.653991,314.379859 L252.35455,311.296231 L253.685613,309.333922 L256.277682,307.161366 L260.481037,305.26914 L264.754448,301.975265 L268.187189,300.924028 L270.639146,300.643698 L273.091103,301.624853 L276.523843,301.064193 L278.835689,303.446996 L281.497814,303.587161 L283.179156,302.746172 L284.370107,303.376914 L285.280834,302.816254 L284.65033,301.905183 L285.140722,300.153121 L284.790442,298.96172 L286.471784,298.260895 L289.414133,297.980565 L292.706762,298.471143 L297.050229,297.910483 L299.151906,298.96172 L300.553025,301.064193 L301.183528,301.274441 L305.45694,299.242049 L306.788002,299.942874 L308.88968,303.657244 L309.450127,306.11013 L308.049009,309.053592 L308.329232,310.805654 L309.450127,314.239694 L310.851246,318.094229 L312.112252,319.075383 L312.392476,321.037691 L314.21393,321.598351 L315.404881,321.037691 L316.805999,318.304476 L317.29639,316.552415 L317.926894,313.538869 L317.086223,308.352768 L317.436502,306.460542 L316.385663,303.306832 L315.895272,299.522379 L315.965328,296.438751 L317.226335,293.285041 L319.678292,290.621908 L322.270361,288.519435 L327.10422,285.646054 L328.014947,284.10424 L330.326792,282.492344 L332.288358,282.212014 L335.370819,279.548881 L339.574174,278.217314 L342.796746,274.853357 L343.42725,270.297998 L343.497306,268.756184 L342.516523,268.475854 L343.567361,264.130742 L341.465684,262.659011 L343.707473,263.359835 L343.707473,260.486455 L345.038536,258.594229 L344.337977,262.308598 L345.739095,264.06066 L343.707473,267.144287 L343.987697,267.284452 L347.070158,263.710247 L348.7515,261.958186 L349.171835,260.206125 L348.541332,259.435218 L348.471276,256.982332 L349.311947,258.103651 L350.082562,258.383981 L350.012506,259.5053 L353.655414,256.07126 L355.406812,252.91755 L354.426029,252.707303 L355.897204,251.445819 L355.61698,252.006478 L357.928826,252.006478 L363.393188,250.674912 L362.622572,249.833922 L357.088155,250.674912 L360.450839,249.413428 L362.622572,249.20318 L364.303915,248.992933 L367.176207,248.222026 L368.85755,248.292108 L371.519675,247.591284 L372.220234,246.399882 L371.449619,245.418728 L371.309507,246.960542 L369.838332,246.890459 L369.417997,244.577739 L370.188612,242.265018 L371.169395,241.353946 L373.901576,238.760895 L378.034875,237.499411 L382.238231,236.02768 L386.651754,233.925206 L386.511642,232.523557 L385.040468,230.070671 L387.002034,224.113663 L385.951195,222.852179 L383.359126,223.623086 L382.58851,222.431684 L378.735435,225.725559 L376.493645,229.1596 L374.602135,231.121908 L372.850737,231.75265 L371.659786,231.962898 L370.959227,233.084217 L364.444026,233.084217 L359.04972,233.084217 L357.15821,233.925206 L352.464464,236.868669 L352.604575,237.499411 L352.18424,239.18139 L348.961668,240.583039 L346.229487,240.232627 L343.42725,240.092462 L341.605796,240.583039 L341.395628,241.844523 L341.395628,241.844523 L341.325572,242.265018 L337.262328,244.858068 L334.109812,246.119552 L332.07819,246.680212 L329.486121,247.871614 L326.683884,248.502356 L324.932486,248.292108 L323.040976,247.381037 L324.932486,245.699058 L324.932486,245.699058 L326.333604,244.157244 L328.925674,241.774441 L328.925674,241.774441 L328.925674,241.774441 L329.416065,240.022379 L329.766345,237.569494 L328.64545,237.078916 L325.633045,239.041225 L325.002542,238.971143 L325.21271,237.919906 L327.874835,236.167845 L328.99573,234.205536 L329.486121,232.243227 L327.594611,230.561249 L325.002542,229.650177 L323.811591,231.332155 L322.830808,231.75265 L321.289578,233.925206 L321.569802,232.453475 L319.748348,233.504711 L318.277173,234.90636 L316.455719,237.078916 L315.544992,238.90106 L315.615048,241.564193 L314.354042,244.367491 L312.042196,246.469965 L311.061413,247.100707 L309.940519,247.591284 L308.679512,247.591284 L308.469344,247.310954 L308.399288,244.998233 L308.88968,243.876914 L309.380071,242.825677 L309.800407,240.723204 L311.551805,238.270318 L313.583427,235.256773 L316.805999,231.962898 L316.315608,231.962898 L312.532588,234.766196 L312.252364,234.275618 L314.283986,232.663722 L317.576614,229.860424 L320.168683,229.510012 L323.251144,228.59894 L325.843213,229.089517 L325.913269,229.089517 L329.205897,228.739105 L328.155058,226.987044 L328.155058,226.987044 L327.314387,226.846879 L327.314387,226.846879 L327.314387,226.846879 L326.333604,226.636631 L326.053381,225.44523 L322.480529,225.795642 L318.977733,226.776796 L317.226335,225.1649 L315.474936,224.60424 L317.64667,222.291519 L313.933706,223.693168 L310.500966,225.1649 L307.278393,226.216137 L305.807219,224.744405 L301.954143,225.655477 L302.234367,225.024735 L305.45694,223.202591 L308.749568,221.45053 L312.882867,219.978799 L312.882867,219.978799 L312.882867,219.978799 L309.169903,218.857479 L306.087443,219.418139 L303.425318,218.086572 L300.202745,217.385748 L297.960956,217.105418 L297.260397,216.404594 L297.820844,214.02179 L297.820844,214.02179 Z M129.266294,181.153121 L134.100153,179.190813 L134.100153,177.929329 L132.278699,177.648999 L129.896797,178.279741 L125.413218,179.751472 L123.871988,181.643698 L124.362379,182.765018 L129.266294,181.153121 L129.266294,181.153121 Z M102.154652,169.6596 L103.765938,168.047703 L101.734316,167.697291 L97.7411286,168.398115 L98.301576,169.519435 L99.4224708,170.290342 L102.154652,169.6596 L102.154652,169.6596 Z M102.995323,154.031213 L100.823589,155.573027 L101.103813,155.923439 L104.046162,155.64311 L104.256329,156.414016 L105.44728,157.255006 L108.88002,156.414016 L109.720691,155.993522 L107.408846,155.432862 L106.287951,154.381625 L103.90605,154.80212 L102.995323,154.031213 L102.995323,154.031213 Z M190.49517,125.858068 L187.41271,125.087161 L180.267006,127.04947 L178.025216,126.839223 L170.319065,128.451119 L166.95638,128.871614 L161.492018,130.623675 L158.129334,132.445819 L152.104525,134.19788 L146.780275,134.267962 L142.366751,136.300353 L144.608541,137.491755 L145.098932,139.103651 L144.538485,140.995878 L146.149771,142.467609 L145.3091,144.920495 L138.863955,145.06066 L141.87636,143.098351 L139.494459,143.098351 L130.317133,144.990577 L123.942044,146.602473 L124.642603,148.915194 L123.801932,150.457008 L126.954448,151.438163 L131.788307,150.947585 L133.049314,151.858657 L135.080935,150.947585 L139.354347,150.106596 L141.245857,150.106596 L137.112557,151.578327 L137.883172,152.279152 L136.131774,154.101296 L132.278699,155.36278 L130.5273,155.012367 L125.623386,156.904594 L124.362379,156.273852 L121.490086,156.554181 L117.777123,158.656655 L112.452872,160.829211 L108.389629,163.212014 L108.599797,164.893993 L105.79756,167.206714 L106.778343,168.187868 L107.128622,170.080094 L112.172649,169.309187 L112.452872,170.780919 L110.141027,172.25265 L107.619014,174.705536 L109.58058,174.705536 L114.624606,173.09364 L113.503711,175.126031 L116.025724,173.654299 L115.745501,175.756773 L119.108185,174.214959 L119.388409,174.985866 L124.432435,173.724382 L120.088968,176.107185 L116.09578,179.260895 L112.102593,180.732627 L110.491307,181.573616 L103.275547,184.096584 L99.8428063,185.778563 L95.2891713,186.26914 L89.3344179,188.581861 L84.710727,189.843345 L79.0361973,191.805654 L78.7559736,192.506478 L85.7615658,191.315077 L89.9649212,189.913428 L94.7987799,188.511779 L99.0721912,187.320377 L101.033757,187.670789 L106.708287,185.848645 L109.860803,183.886337 L117.216675,181.713781 L119.948856,179.891637 L124.572547,178.630153 L129.896797,176.878092 L136.131774,173.934629 L135.991662,171.902238 L143.76787,169.028857 L148.952008,166.295642 L155.397153,164.053004 L155.116929,165.034158 L150.423183,166.295642 L144.608541,170.290342 L142.366751,172.743227 L146.85033,171.832155 L151.123742,170.500589 L155.677377,169.589517 L157.708998,169.37927 L160.160956,166.505889 L164.574479,165.6649 L166.395933,167.416961 L170.599288,169.309187 L175.293035,168.958775 L179.286223,170.360424 L181.528012,171.131331 L183.839858,175.40636 L186.431927,176.597762 L191.405897,176.737927 L194.27819,177.018257 L192.38668,180.872792 L193.507575,184.306832 L191.19573,187.951119 L192.947128,189.282686 L193.367463,190.824499 L193.367463,190.824499 L196.940315,188.792108 L199.112049,186.199058 L195.889476,183.535925 L196.940315,178.770318 L197.71093,175.826855 L196.51998,173.934629 L196.029588,172.25265 L196.379868,170.150177 L191.896289,171.481743 L186.572039,173.794464 L186.431927,171.061249 L186.011591,169.239105 L184.120081,168.117786 L181.177733,168.047703 L205.977529,145.340989 L223.001118,131.184335 L223.001118,131.184335 L223.001118,131.184335 L220.549161,130.693757 L217.676868,129.572438 L213.123233,130.133098 L211.582003,129.642521 L206.608033,129.292108 L202.264565,128.170789 L198.901881,128.521201 L195.469141,127.890459 L196.870259,127.04947 L192.456736,126.839223 L190.144891,127.540047 L190.49517,125.858068 L190.49517,125.858068 Z" id="US"></path>
        </g>
    </g>
</svg>